<svg version="1.2" xmlns="http://www.w3.org/2000/svg" viewBox="0 0 2132 421" width="2132" height="421">
	<title>Data Ant(2)-ai</title>
	<style>
		.s0 { fill: #231f20 } 
	</style>
	<g id="_Artboards_">
	</g>
	<g id="图层 1">
		<g id="&lt;Group&gt;">
		</g>
		<g id="&lt;Group&gt;">
		</g>
		<g id="&lt;Group&gt;">
			<path id="&lt;Compound Path&gt;" fill-rule="evenodd" class="s0" d="m470.8 401.6c-18.5-11.8-32.8-28.1-42.8-48.7-10-20.7-15-44.8-15-72.4 0-27.2 5-51.4 15-72.6 10-21.1 24.2-37.6 42.3-49.4q27.4-17.8 63.7-17.8 16.8 0.1 33.8 6.2 16.9 6.2 31.7 17v-16.7h78.7v203.7q0 39.9 9.9 62h-73.8q-3.5-6.9-5.9-17.7-30.5 24.1-72.4 24.1-37.4 0-65.2-17.7zm26.6-79.7c6.1 12.4 14.1 22.4 24.1 29.7q15 11.1 31.8 11.1c7.8 0 16.7-1.7 26.5-5.2q14.8-5.1 25.6-22.3v-110.3q-10.8-17.2-25.3-22.1c-9.7-3.3-18.7-5-26.8-5q-16.8 0.1-31.8 10.9c-10 7.2-18 17.1-24.1 29.8-6.1 12.6-9.1 26.6-9.1 42 0 15.1 3 28.9 9.1 41.4z"/>
			<path id="&lt;Compound Path&gt;" class="s0" d="m767.7 148.2v-75.8h73.9v75.8h51.1v60h-51.1v114.2q0 14.2 2.2 21.6c1.5 5 4.1 8.3 8.1 10.1q5.9 2.7 17.2 2.7 7.4 0 12.6-0.5 5.1-0.5 9-1.4v60.5q-20.6 2.5-38.3 2.5-34 0-50.7-6.9-16.7-6.9-25.3-23.9-8.7-17-8.7-48.5v-130.4h-38.3v-60z"/>
			<path id="&lt;Compound Path&gt;" fill-rule="evenodd" class="s0" d="m994.8 401.6c-18.5-11.8-32.8-28.1-42.8-48.7-10-20.7-15-44.8-15-72.4 0-27.2 5-51.4 15-72.6 10-21.1 24.2-37.6 42.3-49.4q27.4-17.8 63.7-17.8 16.8 0.1 33.8 6.2 16.9 6.2 31.7 17v-16.7h78.7v203.7q0 39.9 9.9 62h-73.9q-3.4-6.9-5.8-17.7-30.6 24.1-72.4 24.1-37.4 0-65.2-17.7zm26.6-79.7c6.1 12.4 14.1 22.4 24.1 29.7q15 11.1 31.8 11.1c7.8 0 16.7-1.7 26.5-5.2q14.8-5.1 25.6-22.3v-110.3q-10.8-17.2-25.3-22.1c-9.7-3.3-18.7-5-26.8-5q-16.8 0.1-31.8 10.9c-10 7.2-18 17.1-24.1 29.8-6.1 12.6-9.1 26.6-9.1 42 0 15.1 3 28.9 9.1 41.4z"/>
			<path id="&lt;Compound Path&gt;" fill-rule="evenodd" class="s0" d="m1479.8 317.5h-110.3l-26 97.4h-86.2l99.9-344.5h135.3l99.9 344.5h-86.6zm-15.7-59l-38.9-144.2h-1l-38.9 144.2z"/>
			<path id="&lt;Compound Path&gt;" class="s0" d="m1726.2 148.2v32c12.2-10.5 26.1-18.7 41.6-24.7q23.4-8.8 46.5-8.8c25.3 0 45.4 7.4 60.3 22.1q22.4 22.2 22.4 57.6v187.5h-78.8v-174.2q0.1-14.3-11.8-23.4c-7.8-6-17.2-9.1-28-9.1q-10.3 0-25.8 6.9-15.5 6.9-26.4 16.8v183h-78.7v-265.7z"/>
			<path id="&lt;Compound Path&gt;" class="s0" d="m1986.5 148.2v-75.8h73.8v75.8h51.2v60h-51.2v114.2q0 14.2 2.2 21.6c1.5 5 4.2 8.3 8.2 10.1q5.9 2.7 17.2 2.7 7.4 0 12.5-0.5 5.2-0.5 9.1-1.4v60.5q-20.6 2.5-38.3 2.5-34 0-50.7-6.9-16.7-6.9-25.3-23.9-8.7-17-8.7-48.5v-130.4h-38.4v-60z"/>
		</g>
		<g id="&lt;Group&gt;">
			<path id="&lt;Path&gt;" class="s0" d="m127 416.5h-88.9v-242.1h88.9z"/>
			<path id="&lt;Path&gt;" class="s0" d="m196.2 416.5h-44.4v-88.9h44.4c49.1 0 89-39.9 89-89 0-49-39.9-88.9-89-88.9h-44.4v-89h44.4c98.1 0 177.9 79.8 177.9 177.9 0 98.1-79.8 177.9-177.9 177.9z"/>
			<path id="&lt;Compound Path&gt;" fill-rule="evenodd" class="s0" d="m127 95.3c0 24.6-26.4 54.4-44.4 54.4-18.1 0-44.5-29.8-44.5-54.4 0-24.5 19.9-34.6 44.5-34.6 24.5 0 44.4 10.1 44.4 34.6zm-58.5-9.6c-4.4-4.3-11.4-4.3-15.7 0-4.4 4.4-4.4 11.4 0 15.7 4.3 4.4 14.2 5 17.4 1.8 3.2-3.2 2.6-13.1-1.7-17.5zm43.9 0c-4.4-4.3-11.4-4.3-15.7 0-4.4 4.4-5 14.3-1.8 17.5 3.2 3.2 13.1 2.6 17.5-1.8 4.3-4.3 4.3-11.3 0-15.7z"/>
			<path id="&lt;Path&gt;" class="s0" d="m51.3 76.8c-1.7 0-3.3-0.8-4.2-2.3l-15.6-24.5-28.8-16.9c-2.4-1.4-3.2-4.4-1.8-6.8 1.4-2.3 4.4-3.1 6.8-1.7l29.8 17.4c0.7 0.4 1.3 1 1.7 1.6l16.2 25.6c1.5 2.3 0.8 5.4-1.5 6.8-0.8 0.6-1.7 0.8-2.6 0.8z"/>
			<path id="&lt;Path&gt;" class="s0" d="m113.9 76.8c-0.9 0-1.8-0.2-2.7-0.8-2.3-1.4-3-4.5-1.5-6.8l16.2-25.6c0.5-0.6 1-1.2 1.7-1.6l29.9-17.4c2.3-1.4 5.3-0.6 6.7 1.7 1.4 2.4 0.6 5.4-1.8 6.8l-28.8 16.9-15.5 24.5c-1 1.5-2.6 2.3-4.2 2.3z"/>
		</g>
		<g id="&lt;Group&gt;">
		</g>
		<g id="&lt;Group&gt;">
		</g>
		<g id="&lt;Group&gt;">
		</g>
		<g id="&lt;Group&gt;">
		</g>
	</g>
</svg>